<?xml version="1.0" standalone="no"?>
<!DOCTYPE svg PUBLIC "-//W3C//DTD SVG 20010904//EN"
 "http://www.w3.org/TR/2001/REC-SVG-20010904/DTD/svg10.dtd">
<svg version="1.0" xmlns="http://www.w3.org/2000/svg"
 width="300.000000pt" height="169.000000pt" viewBox="0 0 300.000000 169.000000"
 preserveAspectRatio="xMidYMid meet">
<metadata>
Created by potrace 1.10, written by Peter Selinger 2001-2011
</metadata>
<g transform="translate(0.000000,169.000000) scale(0.100000,-0.100000)"
fill="#000000" stroke="none">
<path d="M1172 875 c2 -112 0 -155 -9 -155 -6 0 -64 9 -129 20 -64 11 -119 19
-121 17 -2 -2 56 -23 129 -46 l132 -43 45 19 46 19 3 144 2 145 -42 18 c-24 9
-47 17 -51 17 -5 0 -7 -70 -5 -155z m66 -28 c-3 -119 -5 -130 -23 -137 -19 -7
-20 -4 -17 124 3 148 5 158 27 150 13 -5 15 -26 13 -137z"/>
<path d="M1032 935 l-39 -44 -23 24 c-12 13 -29 21 -37 18 -11 -5 -8 -11 14
-29 l28 -22 -29 -31 c-34 -36 -15 -44 26 -12 l25 20 42 -43 c38 -39 45 -42 67
-32 22 10 24 16 24 92 0 77 -1 81 -25 92 -34 16 -28 18 -73 -33z m68 -5 c0 -5
-2 -10 -4 -10 -3 0 -8 5 -11 10 -3 6 -1 10 4 10 6 0 11 -4 11 -10z m-20 -55
l0 -46 -30 23 -30 22 27 23 c16 12 29 22 31 23 1 0 2 -20 2 -45z m20 -55 c0
-5 -5 -10 -11 -10 -5 0 -7 5 -4 10 3 6 8 10 11 10 2 0 4 -4 4 -10z"/>
<path d="M1315 845 c0 -101 3 -135 13 -135 9 0 12 33 12 130 0 123 1 130 20
130 19 0 20 -7 20 -130 0 -82 4 -130 10 -130 7 0 10 47 8 133 l-3 132 -40 3
-40 3 0 -136z"/>
<path d="M1442 883 l3 -98 29 -3 c26 -3 28 -6 24 -38 -3 -23 0 -34 8 -34 10 0
14 36 16 135 2 103 0 135 -9 135 -10 0 -13 -26 -13 -96 0 -86 -2 -95 -17 -92
-16 3 -18 16 -18 96 0 68 -3 92 -13 92 -10 0 -12 -23 -10 -97z"/>
<path d="M1705 845 c0 -109 3 -135 14 -135 11 0 13 12 8 54 -5 50 -4 55 16 59
20 4 20 4 2 6 -18 1 -20 8 -20 72 l-1 71 29 -6 c17 -4 26 -2 22 4 -3 6 -21 10
-38 10 l-32 0 0 -135z"/>
<path d="M1815 968 c-2 -7 -6 -68 -7 -136 -2 -92 0 -122 10 -122 8 0 12 17 12
50 0 43 3 50 20 50 17 0 20 -7 20 -50 0 -33 4 -50 13 -50 9 0 11 30 7 132 l-5
133 -33 3 c-20 2 -34 -2 -37 -10z m55 -73 c0 -68 -2 -75 -20 -75 -18 0 -20 7
-20 75 0 68 2 75 20 75 18 0 20 -7 20 -75z"/>
<path d="M1935 845 l0 -135 38 0 c20 0 37 5 37 10 0 6 -11 10 -25 10 l-25 0 0
125 c0 93 -3 125 -12 125 -10 0 -13 -34 -13 -135z"/>
<path d="M2040 972 c0 -5 14 -7 30 -4 l30 4 0 -75 c0 -75 0 -76 -27 -79 -26
-3 -28 -7 -31 -55 l-3 -53 40 0 c23 0 41 5 41 10 0 6 -14 10 -31 10 -29 0 -30
2 -27 37 2 30 8 38 28 43 24 6 25 10 28 88 l3 82 -41 0 c-22 0 -40 -4 -40 -8z"/>
<path d="M1560 860 c0 -12 13 -15 60 -15 47 0 60 3 60 15 0 12 -13 15 -60 15
-47 0 -60 -3 -60 -15z"/>
</g>
</svg>
